<?xml version="1.0" encoding="UTF-8"?>
<svg version="1.1" xmlns="http://www.w3.org/2000/svg" width="32" height="32">
<path d="M0 0 C4.8846525 2.26787438 7.73212562 5.1153475 10 10 C10.75381535 15.5997712 10.77303575 20.33499991 8.375 25.5 C3.80134327 30.3143755 0.6912538 32.25156236 -6 32.5 C-12.6912538 32.25156236 -15.80134327 30.3143755 -20.375 25.5 C-22.77303575 20.33499991 -22.75381535 15.5997712 -22 10 C-17.52212837 0.3553534 -9.85292056 -1.32635469 0 0 Z " fill="#050505" transform="translate(22,0)"/>
<path d="M0 0 C0.86625 -0.00773438 1.7325 -0.01546875 2.625 -0.0234375 C5 0.375 5 0.375 6.8125 1.6484375 C8 3.375 8 3.375 8 7.375 C6.35 7.375 4.7 7.375 3 7.375 C3 6.385 3 5.395 3 4.375 C1.35 4.375 -0.3 4.375 -2 4.375 C-2 7.675 -2 10.975 -2 14.375 C-0.35 14.375 1.3 14.375 3 14.375 C3 13.715 3 13.055 3 12.375 C4.65 12.375 6.3 12.375 8 12.375 C7.42655063 15.24224686 7.1385485 16.2364515 5 18.375 C2.72265625 18.67578125 2.72265625 18.67578125 0.0625 18.6875 C-1.25041016 18.71263672 -1.25041016 18.71263672 -2.58984375 18.73828125 C-5 18.375 -5 18.375 -6.79296875 17.23046875 C-8.51926571 14.576776 -8.39809115 12.51539677 -8.375 9.375 C-8.38273438 8.323125 -8.39046875 7.27125 -8.3984375 6.1875 C-8 3.375 -8 3.375 -6.7890625 1.5234375 C-4.42144227 0.00361141 -2.79955551 -0.02499603 0 0 Z " fill="#C9C9C9" transform="translate(16,6.625)"/>
<path d="M0 0 C0 5.94 0 11.88 0 18 C-4 16 -4 16 -5 15 C-5.15167148 13.04577134 -5.22179996 11.08490271 -5.25 9.125 C-5.27578125 8.05507812 -5.3015625 6.98515625 -5.328125 5.8828125 C-5 3 -5 3 -3.609375 1.1171875 C-2 0 -2 0 0 0 Z " fill="#FCFCFC" transform="translate(13,7)"/>
<path d="M0 0 C1.65 0 3.3 0 5 0 C4.42655063 2.86724686 4.1385485 3.8614515 2 6 C-1.125 6.125 -1.125 6.125 -4 6 C-4 5.01 -4 4.02 -4 3 C-3.01 2.67 -2.02 2.34 -1 2 C-0.67 1.34 -0.34 0.68 0 0 Z " fill="#FAFAFA" transform="translate(19,19)"/>
</svg>
